<?xml version="1.0" encoding="utf-8"?>
<!-- Generator: Adobe Illustrator 16.0.0, SVG Export Plug-In . SVG Version: 6.00 Build 0)  -->
<!DOCTYPE svg PUBLIC "-//W3C//DTD SVG 1.1//EN" "http://www.w3.org/Graphics/SVG/1.1/DTD/svg11.dtd">
<svg version="1.1" id="Layer_1" xmlns="http://www.w3.org/2000/svg" xmlns:xlink="http://www.w3.org/1999/xlink" x="0px" y="0px"
	 width="212.5px" height="216.725px" viewBox="0 0 212.5 216.725" enable-background="new 0 0 212.5 216.725" xml:space="preserve">
<g>
	<path fill="#58BA56" d="M116.735,17.353c-4.217,5.063-8.596,2.187-10.02,1.017c1.102-1.207,1.605-1.859,3.514-3.438
		c1.985,0.808,5.518-0.722,5.518-0.722c-2.384,0.617-4.198,0.268-4.844,0.095c0.133-0.104,2.479-1.805,3.191-2.782
		c1.966,0.057,3.59-1.633,3.59-1.633c-0.058-0.039-1.045,0.722-2.926,0.807c1.947-2.849,1.852-5.48,1.852-5.48
		s-0.712,2.392-2.545,5.023c-0.37-1.86,0.104-3.134,0.048-3.17c0,0-1.273,2.088-0.684,4.017c-0.997,1.15-2.574,2.126-3.153,2.575
		c-0.047-0.125-0.646-2.111-0.057-5.053c0,0-1.605,3.692-0.598,5.611c-1.235,0.95-1.558,1.18-3.609,3.469
		c-4.645-3.469-0.654-9.681,2.821-11.133c3.571-1.49,5.063-1.186,8.339-6.555C120.763,5.32,120.174,13.23,116.735,17.353
		L116.735,17.353z"/>
	<path fill="#57BA55" d="M96.923,16.813c2.118,0.967,3.58,2.277,4.589,3.533c0.007-0.04,0.027-0.068,0.037-0.104
		c1.908-6.886-8.596-5.929-8.596-5.929s1.455,2.232,2.262,4.673c0.928,2.821,4.758,5.167,6.134,1.814
		C100.352,19.461,98.937,18.01,96.923,16.813L96.923,16.813z"/>
	<path fill="#57BA55" d="M106.715,18.359c-0.01-0.009-0.723-0.653-0.712-0.662c-1.805,1.982-2.507,3.675-2.677,5.838
		c-0.269-0.748-0.817-1.938-1.814-3.189c-0.049,0.159-0.104,0.313-0.163,0.454c1.065,1.434,1.474,3.403,1.719,4.037
		c0,1.798,0.2,2.69,0.353,4.188c0,0,0.968,0.57,1.232-0.491C104.113,27.632,103.581,21.439,106.715,18.359L106.715,18.359z"/>
	<path fill="#040305" d="M106.715,18.359"/>
	<rect x="92.953" fill="none" width="26.259" height="29.178"/>
</g>
<path fill="#42C5E4" d="M148.947,158.988c-4.141-3.88-6.38-13.42-7.19-17.54c15.2-11.439,25.03-29.65,25.03-50.15
	c0-34.66-28.09-62.75-62.75-62.75s-62.75,28.09-62.75,62.75c0,20.9,10.21,39.41,25.92,50.81c-0.91,4.41-3.13,13.189-7.06,16.88
	c-4.391,4.11-4.761,9.681-4.75,11.56c-0.69,0.721-1.11,1.701-1.11,2.78c0,2.261,1.83,4.091,4.08,4.091c0.52,0,1.01-0.101,1.46-0.271
	h0.01c0.63-0.091,2.13-0.729,4.63-4.25c1.33-1.86,1.051-5.53,8.16-9.74c5.79-3.44,10.01-10.05,11.37-12.38
	c0.32-0.529,0.48-0.84,0.48-0.84l0.479-0.641c-0.03-0.22-0.05-0.34-0.05-0.34l0.26,0.051l-0.21,0.289c0.05,0.36,0.13,1.01,0.21,1.86
	c0.45,4.3,1.04,13.82-1.72,18.66c-2.99,5.22-1.7,10.649-1.141,12.44c-0.449,0.891-0.56,1.959-0.239,2.99
	c0.66,2.16,2.95,3.369,5.1,2.709c0.5-0.16,0.93-0.4,1.311-0.689h0.01c0.58-0.279,1.819-1.33,3.18-5.43
	c0.72-2.17-0.63-5.589,4.93-11.71c5.351-5.899,7.301-15.42,7.431-16.08c0.01-0.029,0.01-0.039,0.01-0.039l0.42-1.19l0.42,1.19
	c0,0,0,0.01,0.01,0.029c0.11,0.59,2.051,10.16,7.42,16.09c5.561,6.121,4.211,9.541,4.931,11.71c1.359,4.1,2.6,5.15,3.18,5.43h0.01
	c0.38,0.289,0.82,0.529,1.311,0.689c2.149,0.66,4.439-0.549,5.109-2.709c0.32-1.031,0.2-2.1-0.25-2.99
	c0.57-1.791,1.851-7.22-1.14-12.44c-2.82-4.95-2.14-14.78-1.689-18.94c0.09-0.91,0.18-1.55,0.21-1.8l0.64,0.86
	c0,0,0.1,0.189,0.3,0.54c1.15,2,5.49,9.079,11.55,12.68c7.11,4.21,6.83,7.88,8.16,9.74c2.5,3.521,4,4.159,4.63,4.25h0.011
	c0.449,0.17,0.939,0.271,1.46,0.271c2.25,0,4.079-1.83,4.079-4.091c0-1.079-0.42-2.06-1.109-2.78
	C153.707,168.668,153.337,163.098,148.947,158.988z M123.978,149.068l-0.07-0.09l0.09-0.021
	C123.997,148.958,123.987,148.999,123.978,149.068z"/>
<circle fill="#FDFDFE" stroke="#FFFFFF" stroke-miterlimit="10" cx="68.893" cy="88.336" r="3.949"/>
<circle fill="#FDFDFE" stroke="#FFFFFF" stroke-miterlimit="10" cx="140.647" cy="88.336" r="3.949"/>
</svg>
